<?xml version="1.0" standalone="no"?>
<!DOCTYPE svg PUBLIC "-//W3C//DTD SVG 20010904//EN"
 "http://www.w3.org/TR/2001/REC-SVG-20010904/DTD/svg10.dtd">
<svg version="1.0" xmlns="http://www.w3.org/2000/svg"
 width="207.333pt" height="127.667pt" viewBox="0 0 622.000000 383.000000"
 preserveAspectRatio="xMidYMid meet">

<g transform="translate(0.000000,383.000000) scale(0.100000,-0.100000)"
fill="#000000" stroke="none">
<path d="M1327 2343 c-4 -3 -7 -84 -7 -180 l0 -173 71 0 c90 0 134 19 149 66
14 42 7 67 -27 94 -24 19 -25 21 -10 38 45 49 26 121 -38 148 -35 14 -126 19
-138 7z m137 -69 c19 -18 20 -38 6 -65 -8 -14 -21 -19 -55 -19 l-45 0 0 50 0
50 39 0 c23 0 46 -7 55 -16z m10 -150 c19 -7 21 -55 4 -72 -7 -7 -34 -12 -60
-12 l-48 0 0 45 0 45 44 0 c24 0 51 -3 60 -6z"/>
<path d="M1707 2343 c-4 -3 -7 -84 -7 -180 l0 -173 25 0 c24 0 25 3 25 60 l0
60 34 0 c30 0 38 -6 72 -60 33 -50 44 -60 67 -60 l29 0 -23 38 c-12 20 -31 49
-41 64 -18 26 -18 27 2 46 26 24 42 78 34 119 -7 37 -36 66 -83 82 -37 12
-124 15 -134 4z m159 -78 c32 -49 -14 -108 -81 -103 -29 3 -30 4 -33 66 l-3
62 50 0 c43 0 53 -4 67 -25z"/>
<path d="M2107 2343 c-4 -3 -7 -84 -7 -180 l0 -173 30 0 30 0 0 164 c0 90 -3
171 -6 180 -6 16 -35 22 -47 9z"/>
<path d="M2570 2171 l0 -181 25 0 c24 0 25 3 25 59 l0 58 49 5 c28 3 61 12 75
21 35 23 53 86 38 135 -15 51 -57 74 -143 80 l-69 5 0 -182z m152 102 c45 -40
-1 -117 -66 -111 -31 3 -31 4 -34 66 l-3 62 42 0 c25 0 50 -7 61 -17z"/>
<path d="M2947 2344 c-4 -4 -7 -85 -7 -181 l0 -173 120 0 120 0 0 25 c0 24 -2
24 -92 27 l-93 3 0 50 0 50 78 3 c74 3 77 4 77 27 0 24 -2 25 -80 25 l-80 0 0
45 0 45 91 0 90 0 -3 28 -3 27 -106 3 c-58 1 -108 -1 -112 -4z"/>
<path d="M3340 2171 l0 -181 25 0 c24 0 25 3 25 59 l0 58 49 5 c28 3 61 12 75
21 35 23 53 86 38 135 -15 51 -57 74 -143 80 l-69 5 0 -182z m154 103 c42 -42
-4 -118 -68 -112 -31 3 -31 4 -34 66 l-3 62 45 0 c27 0 51 -6 60 -16z"/>
<path d="M3717 2343 c-4 -3 -7 -84 -7 -180 l0 -173 25 0 c24 0 25 3 25 59 l0
58 56 6 c65 7 99 32 113 85 24 84 -45 152 -154 152 -29 0 -55 -3 -58 -7z m151
-65 c16 -16 15 -70 -1 -93 -10 -12 -28 -18 -58 -19 l-44 -1 -3 63 -3 62 49 0
c26 0 53 -5 60 -12z"/>
<path d="M4088 2308 c-2 -24 -2 -105 0 -180 l3 -138 115 0 114 0 0 25 c0 24
-2 24 -92 27 l-93 3 0 50 0 50 83 3 c80 3 82 3 82 27 0 25 -1 25 -85 25 l-85
0 0 45 0 45 90 0 90 0 0 30 0 30 -109 0 -110 0 -3 -42z"/>
<path d="M4487 2343 c-4 -3 -7 -84 -7 -180 l0 -173 25 0 c24 0 25 3 25 60 l0
60 34 0 c30 0 37 -6 72 -60 32 -50 43 -60 67 -60 20 0 26 4 21 13 -4 6 -23 36
-41 65 l-34 53 25 30 c55 65 41 139 -34 177 -43 21 -138 31 -153 15z m151 -65
c7 -7 12 -29 12 -50 0 -46 -31 -71 -82 -66 l-33 3 -3 63 -3 62 49 0 c26 0 53
-5 60 -12z"/>
<path d="M2543 1588 c-32 -39 -183 -375 -164 -364 4 3 20 36 36 73 16 37 55
119 87 182 53 103 68 143 41 109z"/>
<path d="M3345 1570 c-13 -5 -3 -7 30 -4 39 4 57 1 83 -15 61 -39 67 -98 20
-191 -29 -58 -109 -150 -131 -150 -4 0 -15 -7 -23 -15 -15 -15 -91 -41 -98
-34 -6 7 11 228 24 300 10 59 15 68 43 82 l32 16 -34 -6 c-19 -3 -41 -12 -50
-19 -72 -60 -130 -119 -149 -153 -29 -51 -21 -54 9 -3 23 38 117 132 133 132
4 0 6 -12 3 -27 -4 -16 -11 -77 -18 -138 -6 -60 -15 -118 -20 -127 -6 -12 -5
-18 1 -18 5 0 10 -9 10 -20 0 -14 -7 -20 -21 -20 -16 0 -20 5 -16 20 3 11 1
18 -4 14 -18 -11 -10 -44 11 -44 11 0 23 -7 26 -15 5 -13 8 -13 18 -2 6 8 34
22 61 32 28 10 56 22 62 28 7 5 20 7 28 3 10 -3 13 -2 10 4 -4 6 16 35 43 65
28 30 59 74 71 98 22 46 28 125 11 157 -25 46 -112 73 -165 50z"/>
<path d="M2381 1483 c-58 -117 -102 -195 -107 -191 -8 9 -37 136 -44 197 l-7
66 -2 -65 c0 -36 8 -102 20 -150 l21 -86 -56 -112 c-31 -61 -56 -117 -55 -124
0 -7 9 5 19 27 26 59 99 180 107 178 3 -1 25 -36 47 -79 23 -43 48 -80 56 -82
12 -4 12 -2 -1 14 -20 23 -89 159 -89 175 0 6 32 75 71 151 38 77 69 146 67
154 -2 8 -23 -25 -47 -73z"/>
<path d="M1941 1547 c-17 -21 -48 -122 -65 -216 -19 -101 -13 -172 19 -209 22
-25 24 -26 50 -12 32 17 62 62 107 159 18 39 35 71 38 71 3 0 5 -45 6 -100 0
-56 5 -105 10 -110 5 -5 9 56 9 156 1 90 0 164 -1 164 -1 0 -15 -37 -32 -82
-62 -164 -130 -266 -167 -251 -16 6 -35 63 -35 105 0 46 37 220 59 277 21 57
22 71 2 48z"/>
<path d="M2550 1509 c-30 -71 -52 -180 -54 -271 -1 -63 3 -81 20 -105 12 -15
29 -29 38 -31 27 -6 83 65 117 147 17 42 34 80 39 84 4 5 9 -34 12 -86 9 -163
23 -138 24 40 0 142 -2 162 -12 137 -7 -16 -32 -73 -55 -127 -51 -120 -90
-177 -122 -177 -50 0 -60 91 -28 246 10 50 28 113 40 139 24 54 24 55 12 55
-5 0 -18 -23 -31 -51z"/>
<path d="M2942 1533 c10 -27 8 -52 -14 -155 -31 -143 -43 -215 -34 -207 7 7
66 300 66 331 0 13 -7 33 -15 44 -13 17 -13 16 -3 -13z"/>
<path d="M2848 1503 c-29 -33 -58 -98 -58 -130 0 -35 22 -63 48 -62 13 0 11 3
-5 9 -44 18 -41 85 8 158 30 44 32 54 7 25z"/>
<path d="M3527 1362 c-21 -23 -21 -36 -3 -51 12 -10 14 -9 9 7 -2 10 3 26 11
35 9 8 16 18 16 21 0 12 -17 5 -33 -12z"/>
<path d="M4043 1368 c-6 -7 -15 -23 -21 -34 -10 -18 -8 -23 7 -27 14 -3 17 0
14 14 -3 11 0 19 6 19 7 0 9 5 6 10 -3 6 -1 10 4 10 6 0 11 5 11 10 0 14 -16
12 -27 -2z"/>
<path d="M3710 1356 c0 -8 -12 -24 -27 -36 l-28 -22 27 16 c25 15 27 15 30 -6
2 -12 9 -23 16 -26 11 -3 12 0 3 17 -6 11 -9 32 -5 46 4 15 2 25 -5 25 -6 0
-11 -6 -11 -14z"/>
<path d="M3790 1324 c-26 -27 -36 -42 -23 -35 15 8 24 8 28 0 5 -7 15 -2 28
12 20 21 22 22 25 5 2 -9 -4 -26 -14 -37 -17 -19 -17 -20 1 -13 16 7 17 3 11
-37 -4 -24 -17 -55 -29 -68 l-22 -24 22 12 c35 18 71 164 48 200 -5 9 -16 5
-38 -16 l-31 -28 22 38 c12 20 20 37 19 37 -2 0 -23 -21 -47 -46z"/>
<path d="M3903 1340 l-23 -28 22 -5 c14 -4 27 1 39 16 l18 22 1 -21 c0 -28 25
-50 36 -33 4 7 3 9 -3 6 -12 -8 -23 14 -23 44 0 21 -15 25 -26 7 -5 -8 -9 -7
-13 4 -5 12 -11 9 -28 -12z"/>
<path d="M4108 1348 c-2 -13 -1 -34 2 -48 l6 -25 10 30 c11 32 8 65 -6 65 -4
0 -10 -10 -12 -22z"/>
<path d="M3583 1334 l-23 -24 23 6 c15 3 28 0 36 -10 11 -13 9 -21 -8 -49 -24
-40 -27 -67 -7 -67 42 0 61 93 26 125 -12 10 -18 25 -16 32 8 20 -6 14 -31
-13z m50 -94 c-6 -24 -33 -49 -33 -31 0 18 19 51 29 51 5 0 7 -9 4 -20z"/>
<path d="M1272 1323 c87 -2 229 -2 316 0 86 1 15 3 -158 3 -173 0 -244 -2
-158 -3z"/>
<path d="M4463 1313 c87 -2 227 -2 310 0 84 1 13 3 -158 3 -170 0 -239 -2
-152 -3z"/>
<path d="M3051 1294 c0 -11 3 -14 6 -6 3 7 2 16 -1 19 -3 4 -6 -2 -5 -13z"/>
<path d="M3794 1215 c-9 -13 -14 -28 -12 -33 1 -5 10 6 19 24 19 40 16 44 -7
9z"/>
</g>
</svg>
